D:\school\WTK\thesis\model\3dpredictsim\Results\batch_windlass\Pog_s1_tmt_aCst_d00_k800_WL10_ig24_pas_GRF.mot
nRows=27
nColumns=19

name D:\school\WTK\thesis\model\3dpredictsim\Results\batch_windlass\Pog_s1_tmt_aCst_d00_k800_WL10_ig24_pas_GRF.mot
datacolumns 19
datarows 27
range 0.0000000000 0.2801394688
endheader
time 	ground_force_vx	ground_force_vy	ground_force_vz	ground_force_px	ground_force_py	ground_force_pz	1_ground_force_vx	1_ground_force_vy	1_ground_force_vz	1_ground_force_px	1_ground_force_py	1_ground_force_pz	ground_torque_x	ground_torque_y	ground_torque_z	1_ground_torque_x	1_ground_torque_y	1_ground_torque_z
        0.0000000000	      -75.0936319385	       55.5160793245	       21.1861640647	        0.1345388908	        0.0000000000	        0.0417329329	      100.5134860783	      478.4549403346	       -0.4176863795	       -0.3314954225	        0.0000000000	       -0.0349745314	        0.0000000000	        0.0000000000	        0.0000000000	        0.0000000000	        0.0000000000	        0.0000000000	
        0.0107745950	     -116.4978777631	      108.5131961618	       44.0813696519	        0.1453585928	        0.0000000000	        0.0393488040	       83.1492932207	      389.6643586169	       -4.1825040377	       -0.3269103669	        0.0000000000	       -0.0333112550	        0.0000000000	        0.0000000000	        0.0000000000	        0.0000000000	        0.0000000000	        0.0000000000	
        0.0215491899	     -109.1575874341	      222.0730562965	       66.5938840539	        0.1565123216	        0.0000000000	        0.0392149982	       51.8075665747	      289.5734498443	      -13.8916821322	       -0.3194339992	        0.0000000000	       -0.0301506504	        0.0000000000	        0.0000000000	        0.0000000000	        0.0000000000	        0.0000000000	        0.0000000000	
        0.0323237849	      -57.5645065018	      452.8336106515	       12.9360845650	        0.1677237961	        0.0000000000	        0.0402640866	       21.5739436953	      189.7688628269	      -13.7805630356	       -0.3060146657	        0.0000000000	       -0.0232344993	        0.0000000000	        0.0000000000	        0.0000000000	        0.0000000000	        0.0000000000	        0.0000000000	
        0.0430983798	      -81.7005203268	      684.3111672124	       -8.2408515188	        0.1775888970	        0.0000000000	        0.0412362762	        4.0359971281	      144.4917692007	      -11.3399735877	       -0.2993835654	        0.0000000000	       -0.0190697218	        0.0000000000	        0.0000000000	        0.0000000000	        0.0000000000	        0.0000000000	        0.0000000000	
        0.0538729748	     -114.5067979046	      872.0850791092	      -13.5985840498	        0.1876044932	        0.0000000000	        0.0408137731	       -1.6130087797	      109.7393754680	      -10.4769907565	       -0.2991631968	        0.0000000000	       -0.0190756324	        0.0000000000	        0.0000000000	        0.0000000000	        0.0000000000	        0.0000000000	        0.0000000000	
        0.0646475697	     -128.1221106257	      946.9390793847	      -14.2469503462	        0.1965945502	        0.0000000000	        0.0400243270	      -11.4764618052	       66.7250301933	       -9.2997614324	       -0.2994762385	        0.0000000000	       -0.0191691075	        0.0000000000	        0.0000000000	        0.0000000000	        0.0000000000	        0.0000000000	        0.0000000000	
        0.0754221647	     -122.2822762663	      923.8688303573	       -9.8255507618	        0.2010468448	        0.0000000000	        0.0394782160	       -8.5803752816	       18.6186139452	       -3.4855078532	       -0.2995920102	        0.0000000000	       -0.0190390802	        0.0000000000	        0.0000000000	        0.0000000000	        0.0000000000	        0.0000000000	        0.0000000000	
        0.0861967596	     -105.9156835736	      868.5629166698	       -8.0239144337	        0.2043515578	        0.0000000000	        0.0390519850	        0.1458747373	       -0.1499320421	        0.0167173646	        0.0000000000	        0.0000000000	        0.0000000000	        0.0000000000	        0.0000000000	        0.0000000000	        0.0000000000	        0.0000000000	        0.0000000000	
        0.0969713546	      -91.4755483443	      813.7929076949	       -9.5054644341	        0.2075506309	        0.0000000000	        0.0387062212	        0.0004461410	       -0.0003831519	        0.0000068364	        0.0000000000	        0.0000000000	        0.0000000000	        0.0000000000	        0.0000000000	        0.0000000000	        0.0000000000	        0.0000000000	        0.0000000000	
        0.1077459495	      -78.4725292961	      768.9145082914	      -11.4255719356	        0.2107286414	        0.0000000000	        0.0384768816	        0.0000520993	       -0.0000381645	       -0.0000013662	        0.0000000000	        0.0000000000	        0.0000000000	        0.0000000000	        0.0000000000	        0.0000000000	        0.0000000000	        0.0000000000	        0.0000000000	
        0.1185205445	      -66.0805471498	      730.8970013763	      -12.6107531259	        0.2139057258	        0.0000000000	        0.0383546070	        0.0001598948	       -0.0001028179	       -0.0000081516	        0.0000000000	        0.0000000000	        0.0000000000	        0.0000000000	        0.0000000000	        0.0000000000	        0.0000000000	        0.0000000000	        0.0000000000	
        0.1292951394	      -54.3014815102	      697.7547139694	      -14.2446035076	        0.2177839962	        0.0000000000	        0.0382898836	        0.0029820033	       -0.0017335300	       -0.0001974137	        0.0000000000	        0.0000000000	        0.0000000000	        0.0000000000	        0.0000000000	        0.0000000000	        0.0000000000	        0.0000000000	        0.0000000000	
        0.1400697344	      -45.1717919961	      669.2340272714	      -16.2480587730	        0.2227879908	        0.0000000000	        0.0382310669	       -0.0206905359	        0.0111517729	        0.0015865067	        0.0000000000	        0.0000000000	        0.0000000000	        0.0000000000	        0.0000000000	        0.0000000000	        0.0000000000	        0.0000000000	        0.0000000000	
        0.1508443294	      -39.0078732536	      645.7539173179	      -18.1155982501	        0.2284788882	        0.0000000000	        0.0381689501	       -0.0187050197	        0.0095226216	        0.0015935123	        0.0000000000	        0.0000000000	        0.0000000000	        0.0000000000	        0.0000000000	        0.0000000000	        0.0000000000	        0.0000000000	        0.0000000000	
        0.1616189243	      -34.2371309382	      626.9943034528	      -19.1293273679	        0.2343111625	        0.0000000000	        0.0381266368	       -0.0123627094	        0.0060139427	        0.0011377704	        0.0000000000	        0.0000000000	        0.0000000000	        0.0000000000	        0.0000000000	        0.0000000000	        0.0000000000	        0.0000000000	        0.0000000000	
        0.1723935193	      -30.2183809929	      613.0495543573	      -19.7747263316	        0.2403367495	        0.0000000000	        0.0380804511	       -0.0098685521	        0.0046176730	        0.0009621401	        0.0000000000	        0.0000000000	        0.0000000000	        0.0000000000	        0.0000000000	        0.0000000000	        0.0000000000	        0.0000000000	        0.0000000000	
        0.1831681142	      -27.1451645402	      602.7861593717	      -20.0089901732	        0.2463587422	        0.0000000000	        0.0380317863	       -0.0102427741	        0.0046291204	        0.0010434730	        0.0000000000	        0.0000000000	        0.0000000000	        0.0000000000	        0.0000000000	        0.0000000000	        0.0000000000	        0.0000000000	        0.0000000000	
        0.1939427092	      -24.4762959927	      595.0325139970	      -19.6406628829	        0.2522133431	        0.0000000000	        0.0379881902	       -0.0137093813	        0.0060023553	        0.0014366271	        0.0000000000	        0.0000000000	        0.0000000000	        0.0000000000	        0.0000000000	        0.0000000000	        0.0000000000	        0.0000000000	        0.0000000000	
        0.2047173041	      -22.0543025757	      589.3217810882	      -19.0442227223	        0.2579763410	        0.0000000000	        0.0379350019	       -0.0225037002	        0.0095727768	        0.0023900426	        0.0000000000	        0.0000000000	        0.0000000000	        0.0000000000	        0.0000000000	        0.0000000000	        0.0000000000	        0.0000000000	        0.0000000000	
        0.2154918991	      -20.6496605374	      585.2716482570	      -18.2337288557	        0.2635498300	        0.0000000000	        0.0378726285	       -0.0423019108	        0.0175359388	        0.0045007742	        0.0000000000	        0.0000000000	        0.0000000000	        0.0000000000	        0.0000000000	        0.0000000000	        0.0000000000	        0.0000000000	        0.0000000000	
        0.2262664940	      -19.3834411616	      581.7371230851	      -17.4999221500	        0.2688018800	        0.0000000000	        0.0378123743	       -0.0844793252	        0.0342331635	        0.0089386841	        0.0000000000	        0.0000000000	        0.0000000000	        0.0000000000	        0.0000000000	        0.0000000000	        0.0000000000	        0.0000000000	        0.0000000000	
        0.2370410890	      -17.6190308459	      577.5880791445	      -16.8641959058	        0.2737839190	        0.0000000000	        0.0377558874	       -0.1672582922	        0.0664591552	        0.0175386562	        0.0000000000	        0.0000000000	        0.0000000000	        0.0000000000	        0.0000000000	        0.0000000000	        0.0000000000	        0.0000000000	        0.0000000000	
        0.2478156839	      -15.3804108604	      572.7567327466	      -16.6484910556	        0.2786262574	        0.0000000000	        0.0376902440	       -0.3107711280	        0.1214579531	        0.0322007207	        0.0000000000	        0.0000000000	        0.0000000000	        0.0000000000	        0.0000000000	        0.0000000000	        0.0000000000	        0.0000000000	        0.0000000000	
        0.2585902789	      -12.7947915677	      567.2721800349	      -16.4873735646	        0.2833916050	        0.0000000000	        0.0376106570	       -0.5206485009	        0.2007844505	        0.0531223435	        0.0000000000	        0.0000000000	        0.0000000000	        0.0000000000	        0.0000000000	        0.0000000000	        0.0000000000	        0.0000000000	        0.0000000000	
        0.2693648738	      -10.0410799516	      561.3021782993	      -16.2986348287	        0.2881009945	        0.0000000000	        0.0375128082	       -0.7710313568	        0.2943243268	        0.0770908750	        0.0000000000	        0.0000000000	        0.0000000000	        0.0000000000	        0.0000000000	        0.0000000000	        0.0000000000	        0.0000000000	        0.0000000000	
        0.2801394688	       -6.9628411180	      554.8430438450	      -15.9725055862	        0.2927512098	        0.0000000000	        0.0373961806	       -1.0118163506	        0.3833754546	        0.0984389703	        0.0000000000	        0.0000000000	        0.0000000000	        0.0000000000	        0.0000000000	        0.0000000000	        0.0000000000	        0.0000000000	        0.0000000000	
